<svg width="350" height="350" viewBox="0 0 350 350" fill="none" xmlns="http://www.w3.org/2000/svg">
<path fill-rule="evenodd" clip-rule="evenodd" d="M179.872 0L196.334 24.4778L228.112 145.006L252.017 162.183V190.669L241.832 195.577L231.875 189.145L243.539 181.369V168.467L217.383 150.97L189.635 32.9115L183.339 27.315L179.872 0Z" fill="#60A7AB"/>
<path fill-rule="evenodd" clip-rule="evenodd" d="M170.093 0.0357666L153.632 24.5135L121.854 145.042L97.9483 162.219V190.705L108.133 195.613L118.09 189.181L106.426 181.404V168.503L132.582 151.006L160.33 32.9472L166.626 27.3505L170.093 0.0357666Z" fill="#60A7AB"/>
<path fill-rule="evenodd" clip-rule="evenodd" d="M166.371 274.606V261.913C166.404 261.432 166.313 260.936 166.081 260.473L142.021 212.496C141.831 212.118 141.568 211.802 141.257 211.557C140.745 210.966 139.99 210.593 139.147 210.593H94.3426C92.801 210.593 91.5513 211.843 91.5513 213.384C91.5513 214.926 92.801 216.176 94.3426 216.176H137.621L160.789 262.373V274.606H166.371Z" fill="#60A7AB"/>
<path fill-rule="evenodd" clip-rule="evenodd" d="M182.742 274.606V261.913C182.708 261.432 182.8 260.936 183.032 260.473L207.092 212.496C207.282 212.118 207.545 211.802 207.856 211.557C208.368 210.966 209.123 210.593 209.966 210.593H254.77C256.312 210.593 257.562 211.843 257.562 213.384C257.562 214.926 256.312 216.176 254.77 216.176H211.492L188.324 262.373V274.606H182.742Z" fill="#60A7AB"/>
<path fill-rule="evenodd" clip-rule="evenodd" d="M342.526 194.12L301.854 249.085H308.437L349.263 194.12H342.526Z" fill="#60A7AB"/>
<path fill-rule="evenodd" clip-rule="evenodd" d="M7.47396 194.12L48.1455 249.085H41.5627L0.73706 194.12H7.47396Z" fill="#60A7AB"/>
<path fill-rule="evenodd" clip-rule="evenodd" d="M199.126 111.966C199.126 125.289 188.326 136.09 175.003 136.09C161.679 136.09 150.879 125.289 150.879 111.966C150.879 98.6431 161.679 87.8425 175.003 87.8425C188.326 87.8425 199.126 98.6431 199.126 111.966ZM175.003 130.434C185.202 130.434 193.471 122.166 193.471 111.966C193.471 101.767 185.202 93.498 175.003 93.498C164.803 93.498 156.534 101.767 156.534 111.966C156.534 122.166 164.803 130.434 175.003 130.434Z" fill="#60A7AB"/>
<path fill-rule="evenodd" clip-rule="evenodd" d="M175 274.606V85.2517H175.002H189.671L179.421 29.9338L183.309 27.2828L183.338 27.3092L179.872 0L196.333 24.4778L228.112 145.006L252.017 162.183V190.669L241.832 195.577L231.913 189.17L231.911 189.172L271.853 214.975L313.915 194.12L342.526 194.12L349.262 194.12L308.437 249.085H288.819L267.258 277.716V301.398L221.483 350L221.302 286.583L220.895 285.624L212.789 281.065V266.569L212.697 266.352L204.997 274.606H188.324L185.061 274.606H175.002H175ZM243.539 168.467V168.47L217.418 150.997L217.418 150.994L243.539 168.467Z" fill="black" fill-opacity="0.15" style="mix-blend-mode:multiply"/>
</svg>
